<?xml version="1.0" encoding="utf-8"?>
<svg version="1.1" id="Calque_1" xmlns="http://www.w3.org/2000/svg" x="0px" y="0px" viewBox="0 0 515 515">
<style type="text/css">
	.stAvatar0{fill:#FBC3AE;stroke:#010101;stroke-width:8.7719;stroke-miterlimit:10;}
	.stAvatar1{fill:#502F1F;stroke:#010101;stroke-width:8.7719;stroke-miterlimit:10;}
	.stAvatar2{fill:#010101;}
	.stAvatar3{fill:#FFFFFF;stroke:#010101;stroke-width:8.7719;stroke-miterlimit:10;}
	.stAvatar4{fill:#603A17;stroke:#010101;stroke-width:8.7719;stroke-miterlimit:10;}
</style>
<g id="tete">
	<rect id="peau" x="7" y="7" class="stAvatar0" width="500" height="500"/>
	<rect id="barbe" x="7" y="401.7" class="stAvatar1" width="500" height="105.3"/>
	<g id="bouche">
		<rect id="levreCentre" x="125.4" y="443.4" class="stAvatar" width="263.2" height="26.3"/>
		<rect id="levreDroite" x="99.1" y="417.1" class="stAvatar" width="26.3" height="52.6"/>
		<rect id="levreGauche" x="388.6" y="417.1" class="stAvatar" width="26.3" height="52.6"/>
	</g>
	<g id="yeux">
		<g id="oeilDroit">
			<path id="blancD" class="stAvatar3" d="M151.7,208.8c-24.2,0-43.9,19.6-43.9,43.9v87.7h87.7v-87.7C195.6,228.4,176,208.8,151.7,208.8z"/>
			<g id="irisPupD">
				<ellipse id="irisD" class="stAvatar4" cx="151.7" cy="283.3" rx="21.9" ry="39.5"/>
				<ellipse id="pupilleD" class="stAvatar" cx="151.7" cy="283.3" rx="8.8" ry="17.5"/>
			</g>
			<path id="paupiereD" class="stAvatar0" d="M151.7,208.8c-24.2,0-43.9,19.6-43.9,43.9v87.7h87.7v-87.7
				C195.5,228.4,175.9,208.8,151.7,208.8z"/>
		</g>
		<g id="oeilGauche">
			<path id="blancG" class="stAvatar3" d="M362.3,208.8c-24.2,0-43.9,19.6-43.9,43.9v87.7h87.7v-87.7C406.1,228.4,386.5,208.8,362.3,208.8z"/>
			<g id="irisPupG">
				<ellipse id="irisG" class="stAvatar4" cx="362.3" cy="283.3" rx="21.9" ry="39.5"/>
				<ellipse id="pupilleG" class="stAvatar" cx="362.3" cy="283.3" rx="8.8" ry="17.5"/>
			</g>
			<path id="paupiereG" class="stAvatar0" d="M362.3,208.8c-24.2,0-43.9,19.6-43.9,43.9v87.7h87.7v-87.7C406.1,228.4,386.5,208.8,362.3,208.8z"/>
		</g>
	</g>
	<path id="masque" class="stAvatar0" d="M7,182.4v219.3h500V182.4H7z M195.5,340.4h-87.7v-87.7c0-24.3,19.7-43.9,43.9-43.9
		s43.8,19.6,43.8,43.9L195.5,340.4L195.5,340.4z M406.1,340.4h-87.7v-87.7c0-24.3,19.7-43.9,43.9-43.9s43.8,19.6,43.8,43.9V340.4z"
		/>
	<rect id="cheveux" x="7" y="7" class="stAvatar1" width="500" height="175.4"/>
</g>
</svg>
