<?xml version="1.0" encoding="utf-8"?>
<!-- Generator: Adobe Illustrator 19.1.1, SVG Export Plug-In . SVG Version: 6.00 Build 0)  -->
<svg version="1.1" id="Calque_1" xmlns="http://www.w3.org/2000/svg" xmlns:xlink="http://www.w3.org/1999/xlink" x="0px" y="0px"
	 viewBox="0 0 72 173" style="enable-background:new 0 0 72 173;" xml:space="preserve">
<style type="text/css">
	.st0{fill:#FBC3AD;stroke:#000000;stroke-miterlimit:10;}
	.st1{fill:#2B3990;stroke:#000000;stroke-miterlimit:10;}
	.st2{fill:#27AAE1;stroke:#000000;stroke-miterlimit:10;}
	.st3{fill:#414042;stroke:#000000;stroke-miterlimit:10;}
	.st4{fill:#4F2E1E;stroke:#000000;stroke-miterlimit:10;}
	.st5{fill:#FFFFFF;stroke:#000000;stroke-miterlimit:10;}
	.st6{fill:#603913;stroke:#000000;stroke-miterlimit:10;}
</style>
<g id="persoDeFace">
	<g id="jambes">
		<g id="Gauches">
			<rect id="Jambe_1_" x="16" y="125" class="st0" width="17" height="47"/>
			<rect id="Pantalon_1_" x="16" y="125" class="st1" width="17" height="40"/>
			<rect id="Chaussure_1_" x="16" y="165" class="st2" width="17" height="7"/>
		</g>
		<g id="Droite_1_">
			<rect id="Jambe_2_" x="39" y="125" class="st0" width="17" height="47"/>
			<rect id="Pantalon_2_" x="39" y="125" class="st1" width="17" height="40"/>
			<rect id="Chaussure_2_" x="39" y="165" class="st2" width="17" height="7"/>
		</g>
	</g>
	<rect id="Torse_1_" x="16" y="68" class="st3" width="40" height="57"/>
	<g id="Bras_3_">
		<g id="Gauche_1_">
			<rect id="Bras_1_" x="1" y="68" class="st0" width="15" height="47"/>
			<rect id="Manche_1_" x="1" y="68" class="st3" width="15" height="27"/>
		</g>
		<g id="Droit">
			<rect id="Bras_2_" x="56" y="68" class="st0" width="15" height="47"/>
			<rect id="Manche_2_" x="56" y="68" class="st3" width="15" height="27"/>
		</g>
	</g>
	<rect id="Cou_1_" x="26" y="58" class="st0" width="20" height="10"/>
	<g id="Tête_2_">
		<rect id="Tête_3_" x="7.5" y="1" class="st0" width="57" height="57"/>
		<rect id="Barbe" x="7.5" y="46" class="st4" width="57" height="12"/>
		<rect id="Cheveux_1_" x="7.5" y="1" class="st4" width="57" height="20"/>
		<g id="Yeux">
			<g id="Droite">
				<path class="st5" d="M24,24c-2.8,0-5,2.2-5,5v10h10V29C29,26.2,26.8,24,24,24z"/>
				<ellipse class="st6" cx="24" cy="32.5" rx="2.5" ry="4.5"/>
				<ellipse cx="24" cy="32.5" rx="1" ry="2"/>
			</g>
			<g id="Gauche">
				<path class="st5" d="M48,24c-2.8,0-5,2.2-5,5v10h10V29C53,26.2,50.8,24,48,24z"/>
				<ellipse class="st6" cx="48" cy="32.5" rx="2.5" ry="4.5"/>
				<ellipse cx="48" cy="32.5" rx="1" ry="2"/>
			</g>
		</g>
		<g id="Bouche_1_">
			<rect x="21" y="50.8" width="30" height="3"/>
			<rect x="18" y="47.8" width="3" height="6"/>
			<rect x="51" y="47.8" width="3" height="6"/>
		</g>
	</g>
</g>
</svg>
