<?xml version="1.0" encoding="utf-8"?>
<!-- Generator: Adobe Illustrator 19.1.1, SVG Export Plug-In . SVG Version: 6.00 Build 0)  -->
<svg version="1.1" id="persoFace" xmlns="http://www.w3.org/2000/svg" xmlns:xlink="http://www.w3.org/1999/xlink" x="0px" y="0px"
	 viewBox="-261 334.9 72 173" style="enable-background:new -261 334.9 72 173;" xml:space="preserve">
<style type="text/css">
	.st0{fill:#FBC3AD;stroke:#000000;stroke-miterlimit:10;}
	.st1{fill:#2B3990;stroke:#000000;stroke-miterlimit:10;}
	.st2{fill:#27AAE1;stroke:#000000;stroke-miterlimit:10;}
	.st3{fill:#414042;stroke:#000000;stroke-miterlimit:10;}
	.st4{fill:#FF7F50;}
	.st5{font-family:'CourierNewPSMT';}
	.st6{font-size:8px;}
	.st7{fill:#FAC2AC;stroke:#231F20;stroke-miterlimit:10;}
	.st8{fill:#4F2E1D;stroke:#231F20;stroke-miterlimit:10;}
	.st9{fill:#FFFFFF;stroke:#010101;stroke-width:0.9998;stroke-miterlimit:10;}
	.st10{fill:#603B19;stroke:#010101;stroke-width:0.9998;stroke-miterlimit:10;}
	.st11{fill:#FAC2AD;stroke:#010101;stroke-width:0.9998;stroke-miterlimit:10;}
	.st12{fill:#FAC2AD;stroke:#010101;stroke-width:1;stroke-miterlimit:10;}
	.st13{fill:#231F20;}
</style>
<g id="persoDeFace">
	<g id="jambes">
		<g id="gauches">
			<rect id="jambeG" x="-245" y="459.9" class="st0" width="17" height="47"/>
			<rect id="pantalonG" x="-245" y="459.9" class="st1" width="17" height="40"/>
			<rect id="chaussureG" x="-245" y="499.9" class="st2" width="17" height="7"/>
		</g>
		<g id="droite">
			<rect id="jambeD" x="-222" y="459.9" class="st0" width="17" height="47"/>
			<rect id="pantalonD" x="-222" y="459.9" class="st1" width="17" height="40"/>
			<rect id="chaussureD" x="-222" y="499.9" class="st2" width="17" height="7"/>
		</g>
	</g>
	<rect id="torse" x="-245" y="402.9" class="st3" width="40" height="57"/>
	<text id="text" transform="matrix(1 0 0 1 -241.8027 419.257)" class="st4 st5 st6">Gotrixx</text>
	<g id="bras">
		<g id="gauche">
			<rect id="braG" x="-260" y="402.9" class="st0" width="15" height="47"/>
			<rect id="mancheG" x="-260" y="402.9" class="st3" width="15" height="27"/>
		</g>
		<g id="droit">
			<rect id="braD" x="-205" y="402.9" class="st0" width="15" height="47"/>
			<rect id="mancheD" x="-205" y="402.9" class="st3" width="15" height="27"/>
		</g>
	</g>
	<rect id="cou" x="-235" y="392.9" class="st0" width="20" height="10"/>
	<g id="tête_3_">
		<rect id="tête_4_" x="-253.5" y="335.9" class="st7" width="57" height="57"/>
		<rect id="barbe_1_" x="-253.5" y="380.9" class="st8" width="57" height="12"/>
		<rect id="cheveux_1_" x="-253.5" y="335.9" class="st8" width="57" height="20"/>
		<g id="yeux_1_">
			<g id="oeilDroit_1_">
				<path id="blancD_1_" class="st9" d="M-237,358.9c-2.8,0-5,2.2-5,5v10h10v-10C-232,361.1-234.2,358.9-237,358.9z"/>
				<g id="irisPupD_2_">
					<ellipse id="irisD_2_" class="st10" cx="-237" cy="367.4" rx="2.5" ry="4.5"/>
					<ellipse id="pupilleD_2_" cx="-237" cy="367.4" rx="1" ry="2"/>
				</g>
				<path id="paupiereD_1_" class="st11" d="M-237,358.9c-2.8,0-5,2.2-5,5v10h10v-10C-232,361.1-234.2,358.9-237,358.9z"/>
			</g>
			<g id="oeilGauche_1_">
				<path id="blancG_2_" class="st9" d="M-213,358.9c-2.8,0-5,2.2-5,5v10h10v-10C-208,361.1-210.2,358.9-213,358.9z"/>
				<g id="irisPupG_2_">
					<ellipse id="irisG_1_" class="st10" cx="-213" cy="367.4" rx="2.5" ry="4.5"/>
					<ellipse id="pupilleG_2_" cx="-213" cy="367.4" rx="1" ry="2"/>
				</g>
				<path id="paupiereG_1_" class="st11" d="M-213,358.9c-2.8,0-5,2.2-5,5v10h10v-10C-208,361.1-210.2,358.9-213,358.9z"/>
			</g>
		</g>
		<path id="masque_1_" class="st12" d="M-253.5,355.9v25h57v-25H-253.5z M-232,373.9h-10v-10c0-2.8,2.2-5,5-5s5,2.2,5,5V373.9
			L-232,373.9z M-208,373.9h-10v-10c0-2.8,2.2-5,5-5c2.8,0,5,2.2,5,5V373.9z"/>
		<g id="bouche_1_">
			<rect x="-240" y="385.6" class="st13" width="30" height="3"/>
			<rect x="-243" y="382.6" class="st13" width="3" height="6"/>
			<rect x="-210" y="382.6" class="st13" width="3" height="6"/>
		</g>
	</g>
</g>
</svg>
