<?xml version="1.0" encoding="utf-8"?>
<svg version="1.1" id="persoTel" xmlns="http://www.w3.org/2000/svg" x="0px" y="0px" viewBox="0 0 66 65">
<style type="text/css">
	.stPersoTel0{fill:#FBC3AD;stroke:#000000;stroke-miterlimit:10;}
	.stPersoTel1{fill:#4F2E1E;stroke:#000000;stroke-miterlimit:10;}
	.stPersoTel2{fill:#FFFFFF;stroke:#020202;stroke-width:0.9998;stroke-miterlimit:10;}
	.stPersoTel3{fill:#603B19;stroke:#020202;stroke-width:0.9998;stroke-miterlimit:10;}
	.stPersoTel4{fill:#010101;}
	.stPersoTel5{fill:#FBC3AF;stroke:#020202;stroke-width:0.9998;stroke-miterlimit:10;}
	.stPersoTel6{fill:#FBC3AF;stroke:#020202;stroke-width:1;stroke-miterlimit:10;}
	.stPersoTel7{fill:#414042;stroke:#020202;stroke-width:1;stroke-miterlimit:10;}
	.stPersoTel8{fill:#27AAE1;}
	.stPersoTel9{stroke:#020202;stroke-miterlimit:10;}
</style>
<g id="tête">
	<rect id="tête" x="1" y="1" class="stPersoTel0" width="57" height="57"/>
	<rect id="barbe" x="1" y="46" class="stPersoTel1" width="57" height="12"/>
	<g id="yeux">
		<g id="oeilDroit">
			<path id="blancD" class="stPersoTel2" d="M17.5,24c-2.8,0-5,2.2-5,5v10h10V29C22.5,26.2,20.3,24,17.5,24z"/>
			<g id="irisPupD">
				<ellipse id="irisD" class="stPersoTel3" cx="17.5" cy="32.5" rx="2.5" ry="4.5"/>
				<ellipse id="pupilleD" class="stPersoTel4" cx="17.5" cy="32.5" rx="1" ry="2"/>
			</g>
			<path id="paupiereD" class="stPersoTel5" d="M17.5,24c-2.8,0-5,2.2-5,5v10h10V29C22.5,26.2,20.3,24,17.5,24z"/>
		</g>
		<g id="oeilGauche">
			<path id="blancG" class="stPersoTel2" d="M41.5,24c-2.8,0-5,2.2-5,5v10h10V29C46.5,26.2,44.3,24,41.5,24z"/>
			<g id="irisPupG">
				<ellipse id="irisG" class="stPersoTel3" cx="41.5" cy="32.5" rx="2.5" ry="4.5"/>
				<ellipse id="pupilleG" class="stPersoTel4" cx="41.5" cy="32.5" rx="1" ry="2"/>
			</g>
			<path id="paupiereG" class="stPersoTel5" d="M41.5,24c-2.8,0-5,2.2-5,5v10h10V29C46.5,26.2,44.3,24,41.5,24z"/>
		</g>
	</g>
	<path id="masque" class="stPersoTel6" d="M1,21v25h57V21H1z M22.5,39h-10V29c0-2.8,2.2-5,5-5s5,2.2,5,5L22.5,39L22.5,39z M46.5,39h-10V29
		c0-2.8,2.2-5,5-5c2.8,0,5,2.2,5,5V39z"/>
	<g id="bouche">
		<rect x="14.5" y="50.8" width="30" height="3"/>
		<rect x="11.5" y="47.8" width="3" height="6"/>
		<rect x="44.5" y="47.8" width="3" height="6"/>
	</g>
	<rect id="cheveux" x="1" y="1" class="stPersoTel1" width="57" height="20"/>
</g>
<g id="gsm">
	<rect id="tel" x="60" y="26" class="stPersoTel7" width="5" height="25"/>
	<rect id="antenne" x="63" y="16" class="stPersoTel7" width="2" height="10"/>
	<rect id="ecran" x="59.5" y="27" class="stPersoTel8" width="1" height="10"/>
	<rect id="locquet" x="56.4" y="50.3" transform="matrix(-0.866 -0.5 0.5 -0.866 77.5824 135.4125)" class="stPersoTel9" width="1" height="14"/>
</g>
</svg>
